<svg width="142" height="142" viewBox="0 0 142 142" fill="none" xmlns="http://www.w3.org/2000/svg">
<path d="M80.5009 137.651L73.025 138.299L72.9144 137.023L78.876 136.507L78.5624 132.888L73.334 133.341L73.2234 132.066L78.4518 131.613L77.9999 126.401L79.5142 126.269L80.5009 137.651Z" fill="#ECE6FC"/>
<path d="M62.1777 130.912L58.3721 130.198L59.261 135.786L59.2924 135.792L62.1777 130.912ZM59.825 137.292L58.1738 136.982L55.8928 124.931L57.544 125.24L58.1363 128.851L62.8855 129.742L64.7778 126.597L66.3032 126.884L59.825 137.292Z" fill="#ECE6FC"/>
<path d="M45.6588 127.945L42.9432 126.578C42.1714 126.19 41.5516 126.045 41.0839 126.144C40.6018 126.248 40.2242 126.572 39.9509 127.115C39.7687 127.477 39.6821 127.791 39.6909 128.059C39.6998 128.326 39.7755 128.567 39.9181 128.782C40.0607 128.997 40.2581 129.186 40.5106 129.349C40.7487 129.516 41.0154 129.674 41.3108 129.823L44.0264 131.189L45.6588 127.945ZM44.8089 133.016L41.1071 131.153C40.8879 131.043 40.6569 130.921 40.4139 130.787C40.1567 130.657 39.9114 130.516 39.678 130.363C39.4398 130.219 39.2279 130.071 39.0423 129.917C38.8471 129.76 38.6972 129.595 38.5927 129.423C38.3599 129.055 38.2178 128.637 38.1665 128.169C38.1057 127.697 38.2047 127.203 38.4636 126.689C38.7369 126.146 39.1076 125.741 39.5758 125.475C40.0296 125.214 40.5474 125.11 41.1293 125.164L41.1436 125.136C40.5819 124.686 40.2445 124.158 40.1315 123.552C40.0186 122.946 40.1203 122.328 40.4367 121.699C40.6237 121.328 40.8726 120.999 41.1834 120.714C41.4941 120.428 41.8524 120.215 42.2583 120.072C42.6498 119.935 43.084 119.879 43.561 119.904C44.0236 119.934 44.5075 120.076 45.0125 120.33L49.9435 122.811L44.8089 133.016ZM48.0104 123.271L44.6087 121.56C44.0084 121.257 43.46 121.185 42.9635 121.341C42.4575 121.492 42.0606 121.854 41.773 122.425C41.6052 122.759 41.5281 123.066 41.5417 123.348C41.5553 123.629 41.6357 123.885 41.783 124.114C41.916 124.348 42.1039 124.556 42.3468 124.738C42.5848 124.929 42.8467 125.097 43.1326 125.241L46.2341 126.801L48.0104 123.271Z" fill="#ECE6FC"/>
<path d="M29.2237 123.541L28.0555 122.568L35.3645 113.788L36.5327 114.761L29.2237 123.541Z" fill="#ECE6FC"/>
<path d="M24.5442 109.572L22.2055 106.486L19.1092 111.222L19.1285 111.247L24.5442 109.572ZM18.5151 112.716L17.5003 111.377L23.9089 100.919L24.9236 102.258L22.9358 105.33L25.8543 109.181L29.369 108.124L30.3064 109.361L18.5151 112.716Z" fill="#ECE6FC"/>
<path d="M10.2057 99.4084L9.63791 97.8955L16.1974 89.008L16.1862 88.9781L7.51285 92.2331L7.00689 90.8849L17.7025 86.8709L18.2872 88.4288L11.8007 97.2376L11.8119 97.2676L20.3953 94.0463L20.9013 95.3944L10.2057 99.4084Z" fill="#ECE6FC"/>
<path d="M4.91825 80.8116L4.73299 79.3029L16.0718 77.9106L16.2571 79.4192L4.91825 80.8116Z" fill="#ECE6FC"/>
<path d="M15.3649 63.9961C14.8111 63.9126 14.4911 63.4598 14.5651 62.9693C14.6367 62.4947 15.0761 62.1564 15.6298 62.24C16.1836 62.3235 16.4719 62.7716 16.4003 63.2462C16.3263 63.7366 15.9186 64.0797 15.3649 63.9961Z" fill="#ECE6FC"/>
<path d="M9.69234 44.9004L13.0609 38.1949L14.2047 38.7695L11.5184 44.1167L14.7639 45.7471L17.1198 41.0576L18.2635 41.6322L15.9077 46.3217L20.5829 48.6703L19.9006 50.0286L9.69234 44.9004Z" fill="#ECE6FC"/>
<path d="M25.0388 32.8324L27.6424 29.9664L22.4184 27.7931L22.3969 27.8168L25.0388 32.8324ZM20.8405 27.4837L21.9702 26.2402L33.4276 30.6177L32.2979 31.8612L28.9126 30.4718L25.6635 34.0484L27.349 37.3089L26.3054 38.4577L20.8405 27.4837Z" fill="#ECE6FC"/>
<path d="M36.2278 20.323L38.8153 18.7273C39.5506 18.2737 39.9988 17.8219 40.1598 17.3717C40.3243 16.9068 40.2469 16.4156 39.9278 15.8981C39.715 15.5531 39.4925 15.3144 39.2604 15.1818C39.0283 15.0493 38.7833 14.9873 38.5255 14.996C38.2676 15.0046 38.0032 15.0737 37.7322 15.2032C37.4646 15.3181 37.1902 15.4623 36.9087 15.6359L34.3212 17.2317L36.2278 20.323ZM32.3556 16.9401L35.8827 14.7648C36.0915 14.636 36.3168 14.5034 36.5584 14.3669C36.8036 14.2157 37.0525 14.0809 37.3054 13.9626C37.5526 13.8352 37.7901 13.7326 38.0179 13.6548C38.2547 13.5714 38.4737 13.5303 38.675 13.5315C39.1103 13.5262 39.5405 13.6243 39.9656 13.8258C40.3997 14.0218 40.768 14.3649 41.0703 14.8551C41.3895 15.3726 41.5395 15.9004 41.5205 16.4385C41.5049 16.9619 41.3216 17.4572 40.9706 17.9243L40.9874 17.9516C41.665 17.7091 42.2915 17.6987 42.8668 17.9204C43.4421 18.142 43.9146 18.5525 44.2841 19.1517C44.5025 19.5058 44.6517 19.8899 44.7318 20.3043C44.8118 20.7186 44.8059 21.1357 44.7141 21.5558C44.6258 21.9612 44.4459 22.3604 44.1744 22.7534C43.9064 23.1317 43.5319 23.4692 43.0507 23.766L38.3524 26.6636L32.3556 16.9401ZM38.9742 24.7762L42.2154 22.7773C42.7873 22.4246 43.137 21.9958 43.2644 21.4912C43.4009 20.9809 43.3011 20.4534 42.9652 19.9087C42.7692 19.5909 42.5478 19.3641 42.301 19.228C42.0542 19.092 41.7945 19.0266 41.522 19.0317C41.2529 19.0222 40.9773 19.0731 40.6951 19.1845C40.4073 19.2868 40.1272 19.422 39.8549 19.59L36.8997 21.4125L38.9742 24.7762Z" fill="#ECE6FC"/>
<path d="M48.5962 8.63845L50.0368 8.15374L53.6799 18.9813L52.2392 19.466L48.5962 8.63845Z" fill="#ECE6FC"/>
<path d="M62.9442 11.9792L66.7982 11.6062L64.3897 6.48641L64.3579 6.4895L62.9442 11.9792ZM63.4291 5.19697L65.1012 5.03512L70.6451 15.9759L68.9729 16.1378L67.3993 12.834L62.5898 13.2995L61.6471 16.8468L60.1023 16.9964L63.4291 5.19697Z" fill="#ECE6FC"/>
<path d="M79.1173 5.10021L80.7033 5.41013L84.8309 15.656L84.8623 15.6621L86.639 6.57006L88.0523 6.84623L85.8613 18.0582L84.2282 17.739L80.1293 7.59664L80.0979 7.5905L78.3396 16.5883L76.9263 16.3121L79.1173 5.10021Z" fill="#ECE6FC"/>
<path d="M97.7247 10.3502L99.1065 10.9836L94.3459 21.3685L92.9642 20.7351L97.7247 10.3502Z" fill="#ECE6FC"/>
<path d="M106.564 28.0633C106.926 27.6356 107.479 27.6006 107.858 27.9208C108.225 28.2306 108.282 28.7821 107.921 29.2098C107.559 29.6375 107.027 29.6481 106.66 29.3382C106.281 29.018 106.203 28.491 106.564 28.0633Z" fill="#ECE6FC"/>
<path d="M125.799 33.2471L129.742 39.6317L128.653 40.3043L125.508 35.213L122.418 37.1214L125.176 41.5865L124.087 42.2591L121.329 37.794L116.878 40.5432L116.079 39.25L125.799 33.2471Z" fill="#ECE6FC"/>
<path d="M128.026 52.6426L129.101 56.3624L133.691 53.0541L133.683 53.0233L128.026 52.6426ZM134.782 51.8727L135.249 53.4867L125.513 60.9468L125.047 59.3329L128.005 57.1789L126.664 52.5368L123.003 52.2622L122.573 50.7712L134.782 51.8727Z" fill="#ECE6FC"/>
<path d="M132.81 68.7296L132.812 71.7696C132.813 72.6336 132.962 73.2522 133.261 73.6254C133.571 74.0092 134.03 74.2009 134.638 74.2005C135.043 74.2002 135.363 74.136 135.598 74.0079C135.832 73.8798 136.013 73.7036 136.141 73.4796C136.269 73.2555 136.349 72.9941 136.381 72.6954C136.423 72.4074 136.444 72.098 136.444 71.7674L136.442 68.7274L132.81 68.7296ZM137.721 67.2066L137.724 71.3506C137.724 71.5959 137.719 71.8572 137.708 72.1346C137.709 72.4226 137.693 72.7053 137.661 72.9826C137.64 73.26 137.603 73.516 137.549 73.7507C137.496 73.9961 137.416 74.2041 137.31 74.3748C137.086 74.7483 136.777 75.0632 136.382 75.3194C135.988 75.5863 135.503 75.72 134.927 75.7203C134.319 75.7207 133.791 75.5717 133.342 75.2733C132.905 74.9856 132.579 74.5698 132.366 74.0259L132.334 74.0259C132.185 74.73 131.865 75.2689 131.375 75.6425C130.884 76.0162 130.287 76.2032 129.583 76.2036C129.167 76.2039 128.762 76.1295 128.367 75.9804C127.972 75.8313 127.62 75.6075 127.31 75.309C127.012 75.0212 126.766 74.6587 126.574 74.2215C126.392 73.7949 126.301 73.299 126.301 72.7337L126.297 67.2137L137.721 67.2066ZM127.578 68.7329L127.581 72.5409C127.581 73.2129 127.763 73.7354 128.126 74.1085C128.489 74.4923 128.99 74.684 129.63 74.6836C130.003 74.6834 130.313 74.6138 130.558 74.475C130.803 74.3362 130.995 74.1494 131.134 73.9147C131.283 73.6906 131.384 73.4292 131.437 73.1305C131.501 72.8318 131.533 72.5224 131.532 72.2024L131.53 68.7304L127.578 68.7329Z" fill="#ECE6FC"/>
<path d="M136.273 85.3884L135.931 86.8693L124.801 84.2932L125.144 82.8124L136.273 85.3884Z" fill="#ECE6FC"/>
<path d="M125.905 95.8534L124.201 99.3306L129.824 99.9647L129.838 99.936L125.905 95.8534ZM131.425 99.8229L130.686 101.332L118.463 100.315L119.202 98.8059L122.841 99.1986L124.966 94.8593L122.44 92.1964L123.123 90.8027L131.425 99.8229Z" fill="#ECE6FC"/>
<path d="M123.281 113.232L122.185 114.42L111.297 112.561L111.275 112.585L118.085 118.865L117.109 119.924L108.711 112.179L109.839 110.956L120.625 112.784L120.646 112.761L113.907 106.545L114.883 105.487L123.281 113.232Z" fill="#ECE6FC"/>
<path d="M109.053 126.322L107.789 127.167L101.443 117.667L102.707 116.823L109.053 126.322Z" fill="#ECE6FC"/>
<path d="M89.3351 124.56C89.5097 125.092 89.2493 125.582 88.7781 125.737C88.322 125.886 87.8222 125.646 87.6476 125.114C87.4731 124.582 87.7434 124.123 88.1995 123.973C88.6707 123.818 89.1605 124.028 89.3351 124.56Z" fill="#ECE6FC"/>
</svg>
