<svg width="28" height="27" viewBox="0 0 28 27" fill="none" xmlns="http://www.w3.org/2000/svg">
<path d="M24.4004 7.58267C25.3533 9.34593 25.8515 11.3238 25.8488 13.3333C25.8494 15.431 25.3055 17.492 24.2716 19.3103C23.2377 21.1286 21.75 22.6405 19.9574 23.6947L23.5766 13.1093C24.2527 11.4 24.4781 10.0307 24.4781 8.81733C24.4786 8.40451 24.4526 7.99209 24.4004 7.58267ZM15.6343 7.69867C16.0863 7.67618 16.5374 7.63704 16.9866 7.58133C17.6258 7.49733 17.5507 6.548 16.9128 6.58267C16.9128 6.58267 14.9845 6.732 13.7496 6.732C12.5805 6.732 10.6193 6.56533 10.6193 6.56533C9.97744 6.53333 9.89441 7.516 10.5389 7.54933C10.5389 7.54933 11.1307 7.61867 11.7752 7.64933L13.6191 12.7667L11.016 20.632L6.70088 7.66667C7.15352 7.64364 7.60536 7.60674 8.05579 7.556C8.69766 7.472 8.62253 6.52267 7.9833 6.56C7.9833 6.56 6.0656 6.71333 4.82668 6.71333C4.60657 6.71333 4.34561 6.704 4.06883 6.696C6.21454 3.5 9.86409 1.34933 14 1.34933C17.0854 1.34933 19.8928 2.54133 22.0016 4.496C21.9515 4.49333 21.9014 4.48533 21.8474 4.48533C20.6836 4.48533 19.8572 5.512 19.8572 6.61333C19.8572 7.60133 20.42 8.43867 21.021 9.424C21.4731 10.2253 21.999 11.2507 21.999 12.732C21.999 13.7493 21.6101 14.948 21.0961 16.5973L19.9152 20.58L15.6317 7.68L15.6343 7.69867ZM14 25.3147C12.8669 25.3158 11.7395 25.1523 10.6523 24.8293L14.2069 14.3787L17.8486 24.4747C17.8762 24.5333 17.9039 24.588 17.9342 24.64C16.6699 25.0885 15.3398 25.3175 14 25.3173V25.3147ZM2.15113 13.3333C2.14921 11.6526 2.49866 9.99046 3.17654 8.456L8.82682 24.1213C6.82538 23.1382 5.13787 21.6051 3.95732 19.6973C2.77676 17.7895 2.15083 15.5841 2.15113 13.3333ZM14 0C6.73383 0 0.819946 5.98267 0.819946 13.3333C0.819946 20.684 6.73383 26.6667 14 26.6667C21.2661 26.6667 27.18 20.684 27.18 13.3333C27.18 5.98267 21.2661 0 14 0Z" fill="#3EC6FF"/>
</svg>
