<svg width="24" height="25" viewBox="0 0 24 25" fill="none" xmlns="http://www.w3.org/2000/svg">
<path d="M12 13.6967C12.9859 13.6967 13.785 12.8975 13.785 11.9117C13.785 10.9259 12.9859 10.1267 12 10.1267C11.0142 10.1267 10.215 10.9259 10.215 11.9117C10.215 12.8975 11.0142 13.6967 12 13.6967Z" fill="#05DBF2"/>
<path d="M7.00199 15.4607L6.60699 15.3597C3.67299 14.6187 1.98999 13.3587 1.98999 11.9077C1.98999 10.4557 3.67399 9.19674 6.60699 8.45574L7.00199 8.35574L7.11299 8.74674C7.40953 9.77043 7.78947 10.7681 8.24899 11.7297L8.33399 11.9077L8.24899 12.0857C7.78899 13.0487 7.40799 14.0467 7.11299 15.0707L7.00199 15.4607V15.4607ZM6.42499 9.36574C4.19599 9.99374 2.82699 10.9517 2.82699 11.9077C2.82699 12.8617 4.19499 13.8207 6.42499 14.4477C6.69799 13.5797 7.02799 12.7307 7.40999 11.9077C7.02522 11.0834 6.69615 10.2341 6.42499 9.36574V9.36574ZM16.997 15.4607L16.887 15.0687C16.5897 14.0448 16.2094 13.0469 15.75 12.0847L15.665 11.9077L15.75 11.7287C16.21 10.7677 16.589 9.76874 16.887 8.74474L16.997 8.35474L17.392 8.45474C20.327 9.19574 22.009 10.4547 22.009 11.9077C22.009 13.3597 20.326 14.6187 17.392 15.3597L16.997 15.4607V15.4607ZM16.587 11.9077C16.987 12.7737 17.32 13.6257 17.574 14.4477C19.804 13.8207 21.173 12.8617 21.173 11.9077C21.173 10.9517 19.805 9.99474 17.574 9.36574C17.3013 10.2339 16.9716 11.083 16.587 11.9077V11.9077Z" fill="#05DBF2"/>
<path d="M6.41902 9.36175L6.30902 8.97175C5.48302 6.06375 5.73302 3.98075 6.99602 3.25475C8.23102 2.53975 10.218 3.38475 12.299 5.51975L12.583 5.81175L12.299 6.10275C11.5599 6.87143 10.8843 7.69881 10.279 8.57675L10.166 8.73875L9.97002 8.75475C8.90561 8.83835 7.84978 9.00858 6.81302 9.26375L6.41902 9.36175V9.36175ZM8.00102 3.83275C7.77702 3.83275 7.57902 3.88175 7.41202 3.97775C6.58402 4.45475 6.43802 6.11575 7.00802 8.35775C7.89902 8.16075 8.79802 8.01975 9.70402 7.94075C10.2285 7.1968 10.8007 6.48765 11.417 5.81775C10.114 4.55075 8.88402 3.83275 8.00102 3.83275V3.83275ZM15.998 20.8167C14.81 20.8167 13.284 19.9207 11.7 18.2947L11.417 18.0037L11.7 17.7137C12.4393 16.9438 13.1151 16.1155 13.721 15.2367L13.833 15.0767L14.027 15.0577C15.0918 14.9756 16.148 14.8061 17.185 14.5507L17.58 14.4507L17.691 14.8417C18.513 17.7477 18.264 19.8337 17.003 20.5597C16.6969 20.7333 16.3499 20.822 15.998 20.8167V20.8167ZM12.583 17.9967C13.885 19.2637 15.116 19.9827 15.998 19.9827C16.223 19.9827 16.421 19.9327 16.587 19.8377C17.416 19.3597 17.563 17.6957 16.991 15.4537C16.101 15.6517 15.201 15.7937 14.293 15.8727C13.7707 16.6179 13.1995 17.3274 12.583 17.9967V17.9967Z" fill="#05DBF2"/>
<path d="M17.58 9.3617L17.185 9.2627C16.1481 9.00673 15.0918 8.83649 14.027 8.7537L13.833 8.7367L13.721 8.5747C13.116 7.69628 12.44 6.86885 11.7 6.1007L11.417 5.8097L11.7 5.5197C13.78 3.3857 15.766 2.5407 17.003 3.2547C18.265 3.9817 18.516 6.0647 17.691 8.9717L17.58 9.3617ZM14.293 7.9407C15.247 8.0257 16.151 8.1687 16.991 8.3577C17.562 6.1157 17.416 4.4547 16.587 3.9767C15.763 3.4997 14.212 4.2297 12.583 5.8177C13.199 6.4877 13.771 7.1957 14.293 7.9407ZM8.00101 20.8167C7.64914 20.8217 7.30227 20.733 6.99601 20.5597C5.73301 19.8337 5.48301 17.7487 6.30801 14.8417L6.41601 14.4507L6.81101 14.5507C7.77501 14.7937 8.83701 14.9647 9.96901 15.0577L10.163 15.0767L10.276 15.2367C10.88 16.1147 11.556 16.9437 12.296 17.7137L12.58 18.0037L12.296 18.2947C10.713 19.9217 9.18701 20.8167 8.00101 20.8167V20.8167ZM7.00801 15.4547C6.43801 17.6967 6.58401 19.3607 7.41201 19.8387C8.23701 20.3087 9.78301 19.5837 11.417 17.9967C10.801 17.3266 10.2288 16.6175 9.70401 15.8737C8.7971 15.7935 7.89648 15.6535 7.00801 15.4547V15.4547Z" fill="#05DBF2"/>
<path d="M12 15.9797C11.313 15.9797 10.608 15.9507 9.89997 15.8917L9.70397 15.8747L9.59097 15.7127C9.19173 15.1386 8.81608 14.5485 8.46497 13.9437C8.11646 13.3373 7.79253 12.7172 7.49397 12.0847L7.40997 11.9077L7.49397 11.7287C7.79297 11.0967 8.11597 10.4767 8.46497 9.87071C8.81197 9.27471 9.19097 8.67871 9.59097 8.10071L9.70397 7.94071L9.89997 7.92271C11.2969 7.80571 12.7011 7.80571 14.098 7.92271L14.292 7.94171L14.405 8.10171C15.2048 9.25046 15.9072 10.464 16.505 11.7297L16.588 11.9087L16.505 12.0857C15.9089 13.3523 15.2063 14.566 14.405 15.7137L14.292 15.8757L14.098 15.8927C13.392 15.9497 12.686 15.9797 12 15.9797V15.9797ZM10.166 15.0757C11.401 15.1687 12.599 15.1687 13.833 15.0757C14.5219 14.0669 15.1342 13.008 15.665 11.9077C15.1361 10.8065 14.5237 9.74737 13.833 8.73971C12.6124 8.64571 11.3865 8.64571 10.166 8.73971C9.47471 9.74701 8.86223 10.8062 8.33397 11.9077C8.86585 13.0074 9.47818 14.0662 10.166 15.0757V15.0757Z" fill="#05DBF2"/>
</svg>
