<svg width="24" height="25" viewBox="0 0 24 25" fill="none" xmlns="http://www.w3.org/2000/svg">
<path d="M21.29 4.76677L17.17 2.76677C17.0174 2.70463 16.8547 2.67075 16.69 2.66677H16.61C16.3501 2.6653 16.097 2.74966 15.89 2.90677L15.75 3.02677L7.87001 10.2168L4.44001 7.66677C4.2855 7.54857 4.09437 7.4884 3.90001 7.49677C3.7096 7.4946 3.52363 7.55425 3.37001 7.66677L2.27001 8.66677C2.18376 8.74303 2.11499 8.83701 2.0684 8.94228C2.0218 9.04756 1.99847 9.16165 2.00001 9.27677C1.9996 9.39318 2.02338 9.50841 2.06986 9.61514C2.11634 9.72187 2.1845 9.81777 2.27001 9.89677L5.27001 12.6068L2.27001 15.3268C2.18551 15.4054 2.11812 15.5006 2.07204 15.6064C2.02596 15.7122 2.00218 15.8264 2.00218 15.9418C2.00218 16.0572 2.02596 16.1714 2.07204 16.2772C2.11812 16.383 2.18551 16.4782 2.27001 16.5568L3.37001 17.5568C3.53588 17.7019 3.74967 17.7802 3.97001 17.7768C4.13925 17.764 4.30179 17.7053 4.44001 17.6068L7.87001 14.9968L15.75 22.1868C15.9516 22.3945 16.2215 22.5224 16.51 22.5468H16.68C16.8509 22.5493 17.0196 22.508 17.17 22.4268L21.29 20.4268C21.4985 20.327 21.6752 20.1713 21.8005 19.9772C21.9259 19.783 21.9949 19.5578 22 19.3268V5.89677C21.9993 5.66083 21.9324 5.42983 21.8069 5.23005C21.6814 5.03027 21.5023 4.86975 21.29 4.76677V4.76677ZM17 17.1368L11 12.6068L17 8.07677V17.1368Z" fill="#05DBF2"/>
</svg>
